<svg width="189" height="48" viewBox="0 0 189 48" fill="none" xmlns="http://www.w3.org/2000/svg">
<g clip-path="url(#clip0_552_410)">
<path d="M20.3818 47.9996C20.3978 47.9032 20.4425 47.8139 20.51 47.7433L34.2933 25.6896L35.1164 24.3403C35.1564 24.2552 35.2139 24.1793 35.285 24.1177C35.3145 24.2099 35.3145 24.3089 35.285 24.401V39.1822C35.285 39.5735 35.1906 39.5533 35.6763 39.5937C36.7086 39.6814 37.7475 39.7556 38.7865 39.7894C39.9589 39.8389 41.1334 39.8074 42.3015 39.6949C44.7611 39.5224 47.1321 38.7057 49.1762 37.327C52.3949 35.1537 54.6217 31.7942 55.3696 27.9833C55.6806 26.3636 55.7736 24.7096 55.6462 23.0653C55.5676 21.6237 55.3069 20.1979 54.8703 18.8218C53.9136 15.7766 52.0259 13.1081 49.4731 11.1918C47.9032 10.0336 46.0731 9.27844 44.1433 8.99247C43.4527 8.88719 42.7567 8.82187 42.0586 8.79683C40.7565 8.73611 39.4612 8.72262 38.1591 8.71587H35.0826C35.0143 8.7253 34.9449 8.71012 34.8868 8.67304C34.8287 8.63595 34.7857 8.57939 34.7655 8.51348C33.7135 6.08065 32.2223 3.86234 30.3668 1.96956C29.7362 1.30892 29.0598 0.693488 28.3428 0.127818C28.3833 0.0468626 28.4575 0.0873369 28.5115 0.0873369H31.4395L42.2745 0.040113C44.8599 0.0337077 47.4296 0.443739 49.8846 1.25445C54.6104 2.78419 58.6744 5.87732 61.4078 10.0247C63.1381 12.5839 64.3273 15.4696 64.9025 18.5048C65.2807 20.5487 65.4413 22.6269 65.3815 24.7046C65.3498 27.1968 64.9683 29.6721 64.2481 32.0581C63.1183 35.7694 61.061 39.1315 58.2706 41.8268C56.9803 43.1158 55.5423 44.248 53.9865 45.1999C52.0274 46.3597 49.8815 47.17 47.6448 47.5949C46.6578 47.7714 45.6625 47.8974 44.6628 47.9727L44.2107 48.0131L20.3818 47.9996Z" fill="#FF2A2A"/>
<path d="M6.50391 48.0003C6.50391 47.9531 6.50391 47.9059 6.55114 47.8789C6.63884 47.9936 6.76702 47.9464 6.87497 47.9464C10.1403 47.9464 13.4057 47.9464 16.671 47.9464V48.0003H6.50391Z" fill="#FF2A2A"/>
<path d="M16.6706 47.946C13.4053 47.946 10.1399 47.946 6.87461 47.946C6.76666 47.946 6.63848 47.9932 6.55077 47.8785C6.57543 47.8022 6.61435 47.7312 6.66546 47.6694L16.7853 31.2624C16.8588 31.1779 16.9139 31.0791 16.9472 30.9723C16.8038 30.9604 16.6595 30.9764 16.5222 31.0195C15.2221 31.2341 13.8989 31.2704 12.589 31.1274C11.3758 31.0146 10.1789 30.768 9.02001 30.3921C6.3639 29.5167 4.09849 27.7383 2.61752 25.3661C1.54979 23.6751 0.801986 21.8022 0.411382 19.8409C0.144362 18.659 0.0175534 17.4498 0.0335749 16.2383C0.0261438 12.0597 1.61673 8.03627 4.47957 4.99223C6.37409 2.99268 8.77577 1.54473 11.4285 0.802769C13.3285 0.233748 15.3095 -0.0170071 17.2913 0.0606705C20.7811 0.147277 24.1555 1.32713 26.9389 3.43383C28.5696 4.69462 29.9186 6.28251 30.8992 8.09553C31.8395 9.7451 32.522 11.5287 32.9231 13.3846C33.2409 14.8851 33.3274 16.4253 33.1795 17.9519C32.9342 20.2923 32.1863 22.5521 30.9869 24.5768C29.4419 27.2753 27.8295 29.8929 26.2238 32.5239C23.1339 37.6016 20.0147 42.6569 16.8663 47.6896L16.6706 47.946ZM16.3401 23.9561C17.2023 23.9656 18.0614 23.8497 18.8903 23.612C19.8947 23.328 20.8264 22.8317 21.6225 22.1567C22.4186 21.4817 23.0605 20.6436 23.5049 19.6992C24.0241 18.6013 24.2562 17.3896 24.1796 16.1776C24.1193 14.9293 23.7878 13.7092 23.2081 12.6021C22.4156 11.1502 21.1662 10.0003 19.6537 9.33066C18.1412 8.66102 16.45 8.50907 14.8423 8.89834C13.8073 9.11486 12.8358 9.5663 12.0029 10.2178C11.1701 10.8694 10.498 11.7036 10.0388 12.656C9.17062 14.3351 8.89032 16.2567 9.24265 18.1138C9.51215 19.7956 10.4 21.3161 11.7321 22.3775C13.0429 23.4142 14.6689 23.9713 16.3401 23.9561V23.9561Z" fill="#FF2A2A"/>
<path d="M84.1637 10.5039V12.1028H81.5258V20.394H79.5423V12.1028H76.9111V10.5039H84.1637Z" fill="white"/>
<path d="M87.5909 12.1026V14.5852H90.9237V16.1909H87.5909V18.8152H91.3488V20.4275H85.6074V10.4902H91.3488V12.1026H87.5909Z" fill="white"/>
<path d="M93.3254 12.8179C93.7476 12.0647 94.3683 11.4417 95.12 11.0166C95.898 10.5705 96.7801 10.3378 97.6769 10.342C98.7105 10.32 99.7257 10.6167 100.585 11.192C101.414 11.7574 102.028 12.5874 102.325 13.5465H100.045C99.8445 13.1 99.5096 12.7273 99.0869 12.4805C98.652 12.2392 98.1607 12.1182 97.6634 12.1297C97.1232 12.1208 96.591 12.2609 96.1252 12.5345C95.675 12.8071 95.3122 13.2027 95.0795 13.6746C94.8306 14.2152 94.7018 14.8032 94.7018 15.3983C94.7018 15.9934 94.8306 16.5814 95.0795 17.122C95.3102 17.5971 95.6733 17.9954 96.1252 18.2689C96.591 18.5425 97.1232 18.6825 97.6634 18.6736C98.1623 18.6841 98.6545 18.5582 99.0869 18.3094C99.5096 18.0626 99.8445 17.6899 100.045 17.2434H102.325C102.03 18.2035 101.419 19.0357 100.591 19.6046C99.7798 20.1222 98.8444 20.4133 97.8823 20.4477C96.9203 20.4821 95.9665 20.2586 95.12 19.8003C94.3692 19.3771 93.7486 18.7565 93.3254 18.0058C92.8914 17.2052 92.6641 16.309 92.6641 15.3983C92.6641 14.4877 92.8914 13.5914 93.3254 12.7909V12.8179Z" fill="white"/>
<path d="M112.229 10.5039V20.394H110.246V16.191H106.009V20.4007H104.025V10.5039H106.009V14.5517H110.246V10.5039H112.229Z" fill="white"/>
<path d="M122.646 20.3938H120.662L116.169 13.607V20.3938H114.186V10.4902H116.169L120.662 17.2905V10.4902H122.646V20.3938Z" fill="white"/>
<path d="M126.641 19.8408C125.874 19.4161 125.238 18.7912 124.799 18.0328C124.352 17.2376 124.117 16.3409 124.117 15.4287C124.117 14.5166 124.352 13.6199 124.799 12.8247C125.236 12.0648 125.873 11.4395 126.641 11.0167C127.423 10.5874 128.301 10.3623 129.194 10.3623C130.087 10.3623 130.965 10.5874 131.748 11.0167C132.512 11.4392 133.146 12.0619 133.583 12.8179C134.022 13.6155 134.253 14.5114 134.253 15.422C134.253 16.3326 134.022 17.2285 133.583 18.0261C133.147 18.7842 132.512 19.4092 131.748 19.8341C130.966 20.2634 130.089 20.4885 129.197 20.4885C128.306 20.4885 127.429 20.2634 126.647 19.8341L126.641 19.8408ZM130.763 18.3162C131.22 18.0426 131.588 17.6418 131.822 17.1626C132.088 16.6216 132.22 16.0246 132.206 15.422C132.22 14.8215 132.089 14.2265 131.822 13.6882C131.588 13.2124 131.22 12.8159 130.763 12.5481C130.279 12.2871 129.737 12.1505 129.187 12.1505C128.637 12.1505 128.096 12.2871 127.612 12.5481C127.15 12.8138 126.776 13.2105 126.539 13.6882C126.273 14.2265 126.141 14.8215 126.155 15.422C126.141 16.0246 126.273 16.6216 126.539 17.1626C126.778 17.6427 127.15 18.0434 127.612 18.3162C128.095 18.5819 128.636 18.7213 129.187 18.7213C129.738 18.7213 130.28 18.5819 130.763 18.3162Z" fill="white"/>
<path d="M137.704 18.8221H140.963V20.394H135.721V10.5039H137.704V18.8221Z" fill="white"/>
<path d="M144.262 19.8408C143.495 19.4161 142.859 18.7912 142.42 18.0328C141.973 17.2376 141.738 16.3409 141.738 15.4287C141.738 14.5166 141.973 13.6199 142.42 12.8247C142.857 12.0648 143.494 11.4395 144.262 11.0167C145.044 10.5874 145.923 10.3623 146.815 10.3623C147.708 10.3623 148.586 10.5874 149.369 11.0167C150.134 11.4386 150.767 12.0645 151.197 12.8247C151.64 13.6213 151.872 14.5175 151.872 15.4287C151.872 16.34 151.64 17.2362 151.197 18.0328C150.763 18.7924 150.128 19.4179 149.362 19.8408C148.581 20.2702 147.703 20.4952 146.812 20.4952C145.92 20.4952 145.043 20.2702 144.262 19.8408V19.8408ZM148.384 18.3162C148.842 18.0412 149.212 17.6409 149.45 17.1626C149.713 16.621 149.843 16.0241 149.828 15.422C149.844 14.822 149.714 14.2271 149.45 13.6882C149.214 13.2115 148.844 12.8148 148.384 12.5481C147.906 12.2741 147.362 12.1364 146.812 12.15C146.259 12.1372 145.714 12.2748 145.233 12.5481C144.771 12.8138 144.397 13.2105 144.16 13.6882C143.899 14.2282 143.77 14.8223 143.783 15.422C143.771 16.0238 143.9 16.6199 144.16 17.1626C144.399 17.6427 144.772 18.0434 145.233 18.3162C145.713 18.5915 146.259 18.7314 146.812 18.721C147.363 18.7322 147.907 18.5922 148.384 18.3162V18.3162Z" fill="white"/>
<path d="M160.231 13.4924C160.015 13.093 159.69 12.7632 159.294 12.5411C158.865 12.3175 158.387 12.2061 157.904 12.2173C157.358 12.2094 156.82 12.3468 156.345 12.6153C155.89 12.8829 155.522 13.2765 155.286 13.7487C155.031 14.2839 154.898 14.8693 154.898 15.4623C154.898 16.0552 155.031 16.6407 155.286 17.1759C155.528 17.6529 155.906 18.0474 156.372 18.3092C156.865 18.5819 157.422 18.7192 157.985 18.7073C158.655 18.7347 159.313 18.5218 159.84 18.1068C160.338 17.6702 160.673 17.0782 160.791 16.427H157.418V14.9091H162.775V16.6361C162.639 17.3304 162.348 17.9852 161.925 18.5521C161.479 19.1432 160.904 19.6253 160.245 19.9621C159.529 20.3214 158.738 20.5042 157.938 20.495C157.032 20.4992 156.141 20.2666 155.354 19.8204C154.595 19.4001 153.968 18.7793 153.539 18.0259C153.109 17.2238 152.885 16.3282 152.885 15.4184C152.885 14.5087 153.109 13.613 153.539 12.811C153.967 12.0551 154.594 11.4318 155.354 11.0097C156.202 10.5576 157.154 10.3353 158.115 10.3649C159.076 10.3945 160.013 10.6749 160.832 11.1784C161.65 11.7174 162.251 12.527 162.532 13.4654L160.231 13.4924Z" fill="white"/>
<path d="M166.209 10.5039V20.394H164.226V10.5039H166.209Z" fill="white"/>
<path d="M170.149 12.1026V14.5852H173.475V16.1909H170.149V18.8152H173.9V20.4275H168.165V10.4902H173.9V12.1026H170.149Z" fill="white"/>
<path d="M177.252 20.1375C176.73 19.927 176.276 19.574 175.944 19.1188C175.617 18.6598 175.443 18.1102 175.444 17.5469H177.57C177.581 17.9128 177.736 18.2595 178.001 18.5117C178.302 18.7597 178.685 18.885 179.074 18.8625C179.464 18.8858 179.849 18.7685 180.16 18.5319C180.29 18.4279 180.393 18.295 180.462 18.1439C180.532 17.9928 180.564 17.8277 180.558 17.6616C180.564 17.5293 180.543 17.3972 180.497 17.2732C180.451 17.1492 180.38 17.0358 180.288 16.9398C180.097 16.744 179.867 16.5901 179.614 16.4878C179.25 16.3481 178.878 16.2287 178.501 16.1302C177.966 15.9808 177.443 15.7937 176.935 15.5703C176.526 15.3811 176.169 15.0937 175.896 14.7337C175.59 14.2962 175.439 13.7693 175.465 13.236C175.455 12.6954 175.607 12.1642 175.903 11.7114C176.209 11.2661 176.638 10.9193 177.138 10.7129C177.711 10.4694 178.33 10.3498 178.953 10.3621C179.842 10.3236 180.719 10.5849 181.442 11.1042C181.758 11.3535 182.015 11.6685 182.197 12.0273C182.379 12.3861 182.48 12.7801 182.495 13.1821H180.315C180.307 13.0183 180.263 12.8583 180.188 12.7129C180.112 12.5674 180.006 12.4398 179.877 12.3388C179.573 12.1041 179.194 11.9868 178.811 12.0082C178.474 11.9874 178.142 12.0933 177.88 12.3051C177.761 12.414 177.669 12.5481 177.609 12.6976C177.55 12.8471 177.525 13.0081 177.536 13.1686C177.53 13.2931 177.551 13.4175 177.596 13.5336C177.642 13.6498 177.711 13.7552 177.799 13.8432C177.993 14.0282 178.223 14.1727 178.474 14.2682C178.737 14.3762 179.101 14.4976 179.573 14.6393C180.11 14.7899 180.636 14.9793 181.145 15.206C181.559 15.4018 181.919 15.6931 182.198 16.056C182.506 16.4902 182.66 17.015 182.636 17.5469C182.636 18.0656 182.494 18.5743 182.225 19.0176C181.933 19.4866 181.514 19.8632 181.017 20.1038C180.431 20.3881 179.786 20.527 179.135 20.5086C178.489 20.515 177.848 20.3887 177.252 20.1375V20.1375Z" fill="white"/>
<path d="M78.6587 29.0086V30.6615H80.6018V31.417H78.6587V33.1373H80.8446V33.8929H77.7412V28.2598H80.8446V29.0086H78.6587Z" fill="white"/>
<path d="M89.5275 28.2598V33.8862H88.6032V30.034L86.8895 33.8862H86.2149L84.4878 30.034V33.8862H83.5635V28.2598H84.562L86.5387 32.6718L88.502 28.2598H89.5275Z" fill="white"/>
<path d="M96.0912 30.7426C95.9375 31.0155 95.7013 31.2327 95.4166 31.3632C95.0628 31.5382 94.6708 31.6217 94.2764 31.6061H93.2577V33.8864H92.3604V28.2599H94.3034C94.68 28.2484 95.0542 28.3246 95.3963 28.4826C95.6758 28.6114 95.9106 28.8204 96.071 29.083C96.2103 29.3374 96.2834 29.6227 96.2834 29.9128C96.2834 30.2028 96.2103 30.4882 96.071 30.7426H96.0912ZM95.086 30.6144C95.1753 30.5272 95.245 30.4219 95.2904 30.3055C95.3358 30.1892 95.3558 30.0645 95.3491 29.9398C95.3491 29.3259 94.9983 29.0223 94.3034 29.0223H93.2846V30.8573H94.3034C94.5854 30.8767 94.8645 30.7901 95.086 30.6144Z" fill="white"/>
<path d="M99.9167 33.5761C99.4809 33.3334 99.1193 32.9766 98.871 32.5439C98.6187 32.0911 98.4863 31.5814 98.4863 31.0631C98.4863 30.5448 98.6187 30.035 98.871 29.5823C99.1184 29.1506 99.4803 28.7957 99.9167 28.5568C100.357 28.3083 100.855 28.1803 101.361 28.1858C101.87 28.1795 102.373 28.3075 102.818 28.5568C103.252 28.7967 103.611 29.1515 103.857 29.5823C104.105 30.0364 104.235 30.5456 104.235 31.0631C104.235 31.5805 104.105 32.0897 103.857 32.5439C103.612 32.9771 103.253 33.3344 102.818 33.5761C102.371 33.8201 101.869 33.9456 101.361 33.9404C100.856 33.9448 100.359 33.8193 99.9167 33.5761V33.5761ZM102.359 32.9014C102.65 32.7292 102.884 32.4761 103.034 32.1728C103.198 31.8308 103.284 31.4561 103.284 31.0766C103.284 30.697 103.198 30.3223 103.034 29.9803C102.882 29.6802 102.648 29.4297 102.359 29.2584C102.053 29.0906 101.709 29.0046 101.361 29.0088C101.014 29.0058 100.673 29.0917 100.369 29.2584C100.08 29.4303 99.8461 29.6806 99.6941 29.9803C99.5342 30.3236 99.4514 30.6978 99.4514 31.0766C99.4514 31.4553 99.5342 31.8295 99.6941 32.1728C99.8441 32.4756 100.078 32.7286 100.369 32.9014C100.67 33.0744 101.013 33.1629 101.361 33.1578C101.711 33.1587 102.056 33.0655 102.359 32.8879V32.9014Z" fill="white"/>
<path d="M114.091 28.2606L112.418 33.8871H111.379L110.192 29.6301L108.937 33.8871H107.905L106.306 28.2539H107.27L108.431 32.8346L109.699 28.2539H110.731L111.905 32.8144L113.079 28.2539L114.091 28.2606Z" fill="white"/>
<path d="M117.39 29.0086V30.6615H119.333V31.417H117.39V33.1373H119.576V33.8929H116.466V28.2598H119.576V29.0086H117.39Z" fill="white"/>
<path d="M125.25 33.8864L123.954 31.6331H123.28V33.8864H122.355V28.26H124.298C124.678 28.2479 125.055 28.3266 125.398 28.4894C125.679 28.6196 125.914 28.8312 126.073 29.0965C126.223 29.3542 126.3 29.6482 126.295 29.9466C126.299 30.3048 126.188 30.6547 125.978 30.945C125.735 31.2609 125.385 31.4768 124.993 31.5522L126.39 33.8864H125.25ZM123.226 30.8978H124.245C124.529 30.9177 124.81 30.8257 125.027 30.6414C125.114 30.552 125.181 30.4464 125.226 30.3306C125.272 30.2147 125.293 30.0911 125.29 29.9668C125.295 29.8429 125.275 29.7193 125.231 29.6034C125.187 29.4875 125.12 29.3817 125.034 29.2922C124.811 29.1142 124.529 29.0274 124.245 29.0493H123.226V30.8978Z" fill="white"/>
<path d="M129.986 28.2598V33.8862H129.068V28.2598H129.986Z" fill="white"/>
<path d="M137.448 33.8871H136.524L133.745 29.6841V33.8871H132.82V28.2539H133.745L136.524 32.4434V28.2539H137.448V33.8871Z" fill="white"/>
<path d="M144.377 29.8793C144.244 29.6106 144.032 29.3891 143.769 29.2452C143.493 29.0982 143.185 29.0239 142.872 29.0293C142.523 29.0229 142.179 29.109 141.874 29.2789C141.585 29.4475 141.35 29.6958 141.199 29.994C141.026 30.3221 140.94 30.6891 140.949 31.0599C140.941 31.4328 141.027 31.8018 141.199 32.1326C141.348 32.4322 141.583 32.681 141.874 32.8477C142.178 33.0197 142.522 33.1081 142.872 33.1041C143.318 33.1237 143.755 32.9716 144.093 32.6791C144.416 32.381 144.62 31.9759 144.667 31.5389H142.555V30.8036H145.658V31.5254C145.599 31.9565 145.439 32.3677 145.193 32.7263C144.939 33.0946 144.602 33.3975 144.208 33.61C143.793 33.8314 143.329 33.9429 142.859 33.9339C142.352 33.94 141.852 33.8145 141.408 33.5696C140.976 33.3272 140.617 32.973 140.369 32.5441C140.117 32.0913 139.984 31.5816 139.984 31.0633C139.984 30.545 140.117 30.0353 140.369 29.5825C140.616 29.1508 140.978 28.7959 141.415 28.5571C141.855 28.308 142.353 28.1799 142.859 28.186C143.423 28.1759 143.979 28.3307 144.457 28.6313C144.924 28.9236 145.28 29.3626 145.469 29.8793H144.377Z" fill="white"/>
<path d="M155.171 28.2606V29.0095H152.783V30.6691H154.645V31.4179H152.783V33.8803H151.858V28.2539L155.171 28.2606Z" fill="white"/>
<path d="M158.585 28.2598V31.8488C158.571 32.0226 158.593 32.1974 158.65 32.3622C158.707 32.5271 158.797 32.6784 158.915 32.8068C159.184 33.0163 159.516 33.1301 159.857 33.1301C160.197 33.1301 160.529 33.0163 160.798 32.8068C160.917 32.6787 161.008 32.5276 161.066 32.3628C161.124 32.198 161.147 32.0231 161.135 31.8488V28.2598H162.053V31.8286C162.068 32.238 161.965 32.6433 161.756 32.9957C161.562 33.306 161.283 33.5542 160.953 33.7108C160.604 33.8619 160.227 33.9399 159.846 33.9399C159.466 33.9399 159.089 33.8619 158.74 33.7108C158.413 33.5537 158.139 33.3053 157.951 32.9957C157.747 32.6414 157.646 32.2371 157.661 31.8286V28.2598H158.585Z" fill="white"/>
<path d="M168.509 28.2606V29.0095H167.011V33.8803H166.087V29.0095H164.616V28.2539L168.509 28.2606Z" fill="white"/>
<path d="M171.971 28.2598V31.8488C171.958 32.0231 171.982 32.198 172.04 32.3628C172.098 32.5276 172.189 32.6787 172.308 32.8068C172.435 32.9197 172.584 33.0065 172.745 33.062C172.906 33.1176 173.076 33.1409 173.246 33.1306C173.59 33.1474 173.928 33.0315 174.19 32.8068C174.309 32.6787 174.4 32.5276 174.458 32.3628C174.516 32.198 174.54 32.0231 174.528 31.8488V28.2598H175.445V31.8286C175.457 32.2377 175.355 32.6421 175.148 32.9957C174.955 33.306 174.676 33.5542 174.345 33.7108C173.996 33.8619 173.62 33.9399 173.239 33.9399C172.858 33.9399 172.482 33.8619 172.133 33.7108C171.806 33.5537 171.532 33.3053 171.343 32.9957C171.139 32.6414 171.039 32.2371 171.053 31.8286V28.2598H171.971Z" fill="white"/>
<path d="M181.186 33.8866L179.891 31.6333H179.216V33.8866H178.292V28.2601H180.235C180.612 28.2473 180.987 28.326 181.328 28.4895C181.609 28.6187 181.845 28.8305 182.003 29.0967C182.153 29.3544 182.23 29.6484 182.225 29.9467C182.226 30.3044 182.115 30.6534 181.908 30.9452C181.664 31.2596 181.314 31.4752 180.923 31.5523L182.313 33.8866H181.186ZM179.162 30.8979H180.181C180.465 30.9178 180.746 30.8258 180.964 30.6416C181.05 30.5522 181.118 30.4465 181.163 30.3307C181.208 30.2149 181.23 30.0912 181.227 29.967C181.232 29.8424 181.212 29.7181 181.166 29.6019C181.121 29.4858 181.052 29.3803 180.964 29.2923C180.744 29.1136 180.463 29.0266 180.181 29.0495H179.189L179.162 30.8979Z" fill="white"/>
<path d="M185.922 29.0096V30.6624H187.865V31.418H185.922V33.1383H188.108V33.8939H184.998V28.2607H188.108V29.0096H185.922Z" fill="white"/>
<path d="M188.108 36.9629H76.9111V37.6375H188.108V36.9629Z" fill="#FF2A2A"/>
</g>
<defs>
<clipPath id="clip0_552_410">
<rect width="188.108" height="48" fill="white"/>
</clipPath>
</defs>
</svg>
